<svg xmlns="http://www.w3.org/2000/svg" viewBox="55 191 723 452" width="723" height="452">
<path fill="#D31145" fill-rule="evenodd" d="M402.62 635.35C389.13 634.65 381.11 633.84 374.11 632.49C372.73 632.22 371.27 632.00 370.86 632.00C370.46 632.00 369.34 631.77 368.38 631.50C367.41 631.23 366.26 631.00 365.82 631.00C365.38 631.00 364.51 630.83 363.90 630.62C363.28 630.41 361.96 630.08 360.95 629.89C357.57 629.23 351.76 627.70 347.94 626.47C347.15 626.21 346.30 626.00 346.06 626.00C345.82 626.00 345.30 625.83 344.90 625.62C344.51 625.41 343.55 625.09 342.78 624.90C341.14 624.49 340.02 624.11 338.60 623.47C338.03 623.21 337.37 623.00 337.13 623.00C336.88 623.00 336.22 622.79 335.65 622.53C334.69 622.10 334.26 621.93 332.19 621.22C331.74 621.06 330.93 620.74 330.38 620.50C329.82 620.25 328.70 619.81 327.88 619.50C327.05 619.20 325.93 618.74 325.38 618.49C323.28 617.51 321.53 616.75 321.38 616.75C321.30 616.75 320.36 616.34 319.30 615.84C316.83 614.68 316.74 614.64 316.00 614.25C315.66 614.07 315.18 613.83 314.94 613.71C314.70 613.59 314.30 613.41 314.06 613.29C313.82 613.17 313.34 612.93 313.00 612.75C312.66 612.57 312.18 612.33 311.94 612.21C311.70 612.09 311.27 611.89 311.00 611.75C310.73 611.61 310.28 611.39 310.00 611.25C309.73 611.11 309.25 610.87 308.94 610.70C308.63 610.54 307.98 610.20 307.50 609.95C307.02 609.70 306.40 609.36 306.12 609.21C305.39 608.79 304.97 608.56 304.00 608.05C303.52 607.79 302.70 607.34 302.19 607.04C299.75 605.63 299.33 605.39 298.69 605.07C298.32 604.88 297.94 604.61 297.86 604.48C297.78 604.35 297.36 604.08 296.92 603.87C296.48 603.67 295.79 603.28 295.38 603.01C294.96 602.74 294.29 602.33 293.88 602.10C293.46 601.87 293.07 601.61 293.00 601.53C292.77 601.24 290.76 600.00 290.54 600.00C290.41 600.00 290.17 599.83 290.00 599.63C289.83 599.42 289.11 598.91 288.41 598.49C287.70 598.07 286.45 597.23 285.62 596.61C284.80 596.00 283.39 595.01 282.50 594.40C281.61 593.80 280.16 592.73 279.28 592.03C278.40 591.33 277.62 590.75 277.53 590.75C277.45 590.75 277.04 590.44 276.62 590.06C276.21 589.68 275.03 588.73 274.00 587.95C272.97 587.17 271.84 586.26 271.50 585.94C271.16 585.62 269.89 584.55 268.70 583.55C259.23 575.68 246.79 562.83 239.15 553.02C238.34 551.98 237.60 551.07 237.52 551.00C237.43 550.93 236.75 550.03 235.99 549.00C235.24 547.97 234.48 546.96 234.31 546.75C233.13 545.33 225.38 533.88 224.00 531.50C223.72 531.02 223.29 530.33 223.06 529.96C222.82 529.59 221.92 528.08 221.05 526.59C219.49 523.89 219.36 523.67 218.77 522.53C218.59 522.20 218.25 521.57 218.00 521.13C217.52 520.27 217.07 519.43 216.69 518.65C216.56 518.39 216.25 517.82 216.00 517.38C215.53 516.54 215.16 515.82 214.79 515.06C214.37 514.18 214.07 513.60 213.54 512.58C213.24 512.00 213.00 511.40 213.00 511.24C213.00 511.08 212.79 510.65 212.54 510.29C212.28 509.92 211.77 508.88 211.41 507.96C211.05 507.04 210.60 505.97 210.41 505.58C210.22 505.19 209.84 504.37 209.57 503.75C209.30 503.13 208.85 502.12 208.57 501.50C208.30 500.88 207.83 499.70 207.52 498.88C207.22 498.05 206.81 497.04 206.62 496.62C206.29 495.93 206.10 495.42 205.24 493.00C205.07 492.52 204.77 491.73 204.56 491.25C204.36 490.77 204.05 489.87 203.88 489.25C203.70 488.63 203.42 487.73 203.25 487.25C201.69 482.82 200.33 478.35 198.76 472.50C198.47 471.41 197.81 468.66 197.24 466.12C197.09 465.44 196.80 464.20 196.60 463.38C195.85 460.22 194.23 450.92 193.62 446.18C191.23 427.80 191.19 407.68 193.51 389.75C193.79 387.62 194.07 385.37 194.14 384.75C194.21 384.13 194.43 382.89 194.63 382.00C194.82 381.11 195.10 379.59 195.24 378.62C195.48 377.02 195.95 374.52 196.75 370.62C196.92 369.80 197.27 368.40 197.53 367.52C197.79 366.64 198.00 365.68 198.00 365.40C197.99 365.11 198.22 364.12 198.50 363.19C199.03 361.41 199.76 358.80 200.20 357.12C200.35 356.57 200.71 355.34 201.00 354.38C201.30 353.41 201.70 352.06 201.90 351.38C202.09 350.69 202.42 349.77 202.63 349.34C202.83 348.90 203.00 348.36 203.00 348.13C203.00 347.89 203.17 347.35 203.37 346.91C203.57 346.48 203.90 345.62 204.10 345.00C204.30 344.38 204.76 343.09 205.12 342.12C205.48 341.16 205.90 339.98 206.04 339.50C206.19 339.02 206.46 338.41 206.65 338.13C206.84 337.86 207.00 337.47 207.00 337.27C207.00 337.07 207.21 336.45 207.46 335.89C207.71 335.33 208.18 334.26 208.49 333.50C210.16 329.52 211.77 325.92 212.72 324.06C212.85 323.82 213.20 323.06 213.51 322.38C214.25 320.75 214.37 320.50 215.28 318.80C215.71 318.02 216.28 316.93 216.56 316.38C217.43 314.66 217.53 314.45 218.07 313.53C218.35 313.03 218.79 312.23 219.05 311.75C219.69 310.52 220.07 309.86 221.56 307.30C222.97 304.88 222.98 304.85 224.07 303.18C224.58 302.39 225.00 301.65 225.00 301.53C225.00 301.42 225.23 301.12 225.50 300.87C225.78 300.63 226.00 300.33 226.00 300.22C226.00 300.11 226.43 299.37 226.96 298.57C227.49 297.78 228.10 296.84 228.32 296.50C228.86 295.67 231.11 292.44 232.44 290.60C233.03 289.79 233.90 288.58 234.38 287.91C234.86 287.24 235.80 286.01 236.47 285.16C237.14 284.32 238.35 282.76 239.15 281.71C244.41 274.88 252.69 265.89 260.12 258.93C266.92 252.58 268.28 251.40 274.17 246.73C279.95 242.14 281.27 241.16 286.50 237.58C287.26 237.06 287.99 236.54 288.12 236.43C288.26 236.32 289.46 235.53 290.78 234.67C292.10 233.82 293.39 232.99 293.65 232.82C293.91 232.64 294.52 232.28 295.00 232.00C295.48 231.72 296.32 231.21 296.88 230.86C297.43 230.52 298.12 230.14 298.41 230.01C298.71 229.88 299.03 229.66 299.12 229.51C299.21 229.36 299.64 229.08 300.08 228.87C300.52 228.67 301.27 228.26 301.75 227.96C302.23 227.67 303.41 227.01 304.38 226.50C306.87 225.18 308.09 224.49 308.36 224.23C308.49 224.10 308.77 224.00 308.99 223.99C309.20 223.99 309.66 223.77 310.00 223.50C310.34 223.23 310.79 223.01 311.00 223.00C311.21 222.99 311.66 222.77 312.00 222.50C312.34 222.23 312.79 222.01 313.00 222.00C313.21 221.99 313.66 221.77 314.00 221.50C314.34 221.23 314.78 221.01 314.96 221.01C315.15 221.00 315.60 220.79 315.96 220.53C316.33 220.28 316.91 219.98 317.25 219.88C317.84 219.70 320.84 218.34 322.27 217.61C323.26 217.10 328.98 214.76 330.88 214.10C331.43 213.90 332.17 213.58 332.54 213.37C332.90 213.17 333.39 213.00 333.61 213.00C333.84 213.00 334.37 212.82 334.79 212.60C335.21 212.38 336.08 212.06 336.72 211.88C338.25 211.44 340.02 210.80 340.55 210.50C340.79 210.37 341.52 210.14 342.18 210.00C342.84 209.86 343.77 209.59 344.25 209.41C345.13 209.07 347.48 208.35 350.50 207.50C351.39 207.25 352.74 206.86 353.50 206.63C354.26 206.41 355.55 206.07 356.38 205.88C357.20 205.70 358.38 205.42 359.00 205.27C359.62 205.11 361.14 204.77 362.38 204.50C363.61 204.23 365.42 203.84 366.38 203.63C369.94 202.85 379.48 201.32 382.75 201.00C384.06 200.87 385.91 200.65 386.88 200.51C394.45 199.40 413.75 199.03 422.88 199.83C425.62 200.07 428.55 200.38 429.38 200.52C430.20 200.65 432.17 200.93 433.75 201.13C438.18 201.70 443.14 202.57 446.88 203.43C447.84 203.65 449.36 203.97 450.25 204.14C451.14 204.32 452.83 204.69 454.00 204.97C455.17 205.24 456.80 205.63 457.62 205.83C458.45 206.02 459.66 206.37 460.32 206.59C460.98 206.82 461.74 207.00 462.01 207.00C462.28 207.00 463.15 207.21 463.94 207.47C464.73 207.72 466.22 208.18 467.25 208.47C471.05 209.57 472.65 210.07 473.88 210.51C474.56 210.76 475.50 211.04 475.95 211.13C476.41 211.22 477.09 211.45 477.45 211.65C477.82 211.84 478.33 212.00 478.57 212.00C478.82 212.00 479.37 212.18 479.79 212.40C480.21 212.62 481.08 212.94 481.72 213.12C483.13 213.53 484.86 214.15 485.91 214.64C486.35 214.84 486.85 215.00 487.04 215.00C487.23 215.00 487.80 215.22 488.32 215.50C488.83 215.77 489.41 216.00 489.62 216.00C489.82 216.00 490.47 216.21 491.06 216.47C491.64 216.73 492.69 217.17 493.38 217.44C496.58 218.72 497.44 219.08 498.38 219.52C498.93 219.79 499.48 220.00 499.60 220.00C499.88 220.00 503.18 221.53 505.44 222.71C505.75 222.87 506.24 223.12 506.53 223.27C507.09 223.56 508.11 224.13 509.69 225.04C510.20 225.34 511.02 225.79 511.50 226.05C511.98 226.31 512.71 226.73 513.12 227.00C513.78 227.41 516.59 229.08 518.02 229.90C518.28 230.05 518.70 230.36 518.96 230.58C519.21 230.81 519.49 231.00 519.59 231.00C519.76 231.00 521.76 232.25 522.00 232.51C522.07 232.58 522.74 233.03 523.50 233.50C524.26 233.97 524.93 234.42 525.00 234.50C525.07 234.58 525.74 235.03 526.50 235.50C527.26 235.97 527.93 236.42 528.00 236.49C528.07 236.57 528.74 237.05 529.50 237.56C533.05 239.97 534.71 241.22 540.35 245.70C547.43 251.32 552.53 256.15 556.79 261.25C558.05 262.76 561.00 267.08 561.00 267.42C561.00 267.53 561.22 268.07 561.49 268.62C562.41 270.50 562.80 272.32 562.68 274.15C562.57 275.78 562.35 276.70 561.35 279.62C560.27 282.78 559.93 283.69 559.51 284.62C559.26 285.18 558.81 286.30 558.51 287.12C558.21 287.95 557.76 289.07 557.51 289.62C557.26 290.18 556.82 291.14 556.53 291.78C556.24 292.41 556.00 293.02 556.00 293.13C556.00 293.25 555.54 294.30 554.99 295.48C553.97 297.64 553.45 298.75 552.46 300.94C552.16 301.59 551.84 302.29 551.75 302.50C551.56 302.91 551.24 303.57 550.79 304.44C550.63 304.75 550.41 305.20 550.29 305.44C550.17 305.68 549.97 306.10 549.83 306.38C549.69 306.65 549.45 307.13 549.29 307.44C549.13 307.75 548.91 308.20 548.79 308.44C548.67 308.68 548.45 309.13 548.29 309.44C548.13 309.75 547.89 310.23 547.75 310.50C547.61 310.77 547.41 311.20 547.29 311.44C547.17 311.68 546.93 312.16 546.75 312.50C546.57 312.84 546.33 313.32 546.21 313.56C546.09 313.80 545.87 314.25 545.70 314.56C545.54 314.87 545.20 315.52 544.95 316.00C544.70 316.48 544.40 317.04 544.29 317.25C544.17 317.46 543.93 317.90 543.76 318.23C543.27 319.17 542.27 320.98 541.33 322.62C540.86 323.45 540.37 324.32 540.24 324.56C539.65 325.63 539.46 325.97 538.50 327.62C537.93 328.59 537.28 329.67 537.05 330.04C536.82 330.40 536.17 331.45 535.62 332.37C534.21 334.73 533.68 335.59 533.22 336.27C532.30 337.64 529.32 342.15 528.62 343.25C528.21 343.89 527.48 344.92 526.99 345.52C526.51 346.13 525.78 347.13 525.37 347.75C524.96 348.37 524.06 349.62 523.38 350.54C522.69 351.46 521.57 352.98 520.88 353.92C520.20 354.86 518.85 356.64 517.88 357.89C516.92 359.14 515.84 360.54 515.50 361.01C514.03 363.00 507.66 370.92 504.65 374.50C500.73 379.16 492.59 387.38 490.96 388.32C489.49 389.17 488.37 389.18 486.83 388.36C485.20 387.50 484.64 386.92 483.89 385.34C482.75 382.92 483.10 380.75 485.50 375.38C485.75 374.82 486.19 373.70 486.49 372.88C486.79 372.05 487.27 370.81 487.55 370.12C487.83 369.44 488.28 368.31 488.56 367.62C488.83 366.94 489.27 365.89 489.53 365.31C489.79 364.72 490.00 364.07 490.00 363.86C490.00 363.65 490.21 363.06 490.48 362.55C490.74 362.04 491.20 360.95 491.50 360.12C491.79 359.30 492.24 358.12 492.50 357.50C492.75 356.88 493.20 355.70 493.50 354.88C493.80 354.05 494.26 352.91 494.52 352.35C494.78 351.78 495.00 351.16 495.00 350.97C495.00 350.78 495.18 350.29 495.40 349.88C495.62 349.46 495.95 348.68 496.13 348.12C496.71 346.38 497.26 344.90 497.60 344.12C497.79 343.71 498.08 342.98 498.24 342.50C498.41 342.02 498.83 340.89 499.16 340.00C499.50 339.11 499.87 338.04 499.99 337.62C500.10 337.21 500.37 336.54 500.59 336.12C500.82 335.71 501.00 335.21 501.00 335.00C501.00 334.79 501.17 334.31 501.37 333.92C501.57 333.54 501.84 332.86 501.98 332.42C502.12 331.98 502.57 330.67 503.00 329.50C503.42 328.33 503.92 326.87 504.11 326.25C504.29 325.63 504.56 324.79 504.71 324.38C507.18 317.44 508.14 310.20 507.30 304.88C506.95 302.69 506.19 299.94 505.50 298.38C505.25 297.82 504.81 296.81 504.51 296.12C504.21 295.44 503.84 294.65 503.69 294.38C503.53 294.10 503.20 293.48 502.95 293.00C502.69 292.52 502.21 291.68 501.86 291.12C501.52 290.57 501.14 289.90 501.02 289.61C500.90 289.33 500.62 288.95 500.40 288.77C500.18 288.59 500.00 288.31 500.00 288.16C500.00 287.88 497.86 284.73 496.08 282.39C495.56 281.71 494.89 280.79 494.58 280.34C494.16 279.72 488.50 272.49 486.72 270.30C486.27 269.75 485.88 270.12 485.70 271.27C485.15 274.76 484.09 280.05 483.50 282.25C483.26 283.14 482.93 284.38 482.77 285.00C482.61 285.62 482.26 286.91 482.00 287.88C481.74 288.84 481.34 290.30 481.12 291.12C480.90 291.95 480.56 292.98 480.36 293.41C480.16 293.85 480.00 294.46 480.00 294.79C480.00 295.11 479.82 295.71 479.61 296.12C479.39 296.53 479.10 297.43 478.95 298.12C478.81 298.81 478.53 299.68 478.34 300.05C478.16 300.42 478.00 300.93 477.99 301.18C477.99 301.42 477.77 302.07 477.50 302.62C477.23 303.18 477.01 303.85 477.00 304.12C476.99 304.40 476.77 305.07 476.50 305.62C476.23 306.18 476.01 306.85 476.00 307.12C475.99 307.40 475.77 308.07 475.50 308.62C475.23 309.18 475.01 309.85 475.01 310.13C475.00 310.41 474.77 311.05 474.50 311.57C474.23 312.08 474.00 312.70 473.99 312.94C473.99 313.18 473.77 313.82 473.50 314.38C473.23 314.93 473.01 315.58 473.01 315.82C473.00 316.07 472.77 316.71 472.50 317.25C472.23 317.79 472.00 318.40 472.00 318.61C472.00 318.82 471.79 319.47 471.53 320.06C471.27 320.64 470.93 321.52 470.76 322.00C470.59 322.48 470.34 323.21 470.19 323.62C470.05 324.04 469.74 324.88 469.50 325.50C469.26 326.12 468.82 327.27 468.53 328.06C468.24 328.85 467.76 330.15 467.47 330.94C467.18 331.73 466.74 332.88 466.50 333.50C466.26 334.12 465.81 335.30 465.51 336.12C465.21 336.95 464.76 338.13 464.51 338.75C463.32 341.70 462.91 342.71 462.47 343.69C462.21 344.28 462.00 344.97 462.00 345.22C462.00 345.47 461.62 346.18 461.15 346.79C459.92 348.40 458.03 348.92 456.43 348.09C455.40 347.56 455.14 347.19 454.77 345.74C454.52 344.74 454.53 344.33 454.89 343.09C455.12 342.29 455.40 341.51 455.51 341.37C455.62 341.23 455.88 340.45 456.08 339.62C456.44 338.15 456.62 337.60 457.51 335.12C457.76 334.44 458.04 333.50 458.13 333.05C458.22 332.59 458.45 331.91 458.65 331.55C458.84 331.18 459.00 330.71 459.00 330.50C459.00 330.29 459.22 329.45 459.49 328.62C459.76 327.80 460.21 326.34 460.49 325.38C460.77 324.41 461.22 322.89 461.48 322.00C461.75 321.11 462.18 319.59 462.45 318.62C462.72 317.66 463.18 316.09 463.47 315.12C463.77 314.16 464.01 313.18 464.00 312.95C464.00 312.71 464.18 311.98 464.41 311.32C464.80 310.17 464.96 309.54 466.00 305.12C466.25 304.02 466.57 302.68 466.70 302.12C466.84 301.57 467.18 300.06 467.46 298.75C467.75 297.44 468.21 295.34 468.49 294.08C468.77 292.82 469.00 291.40 469.00 290.94C469.00 290.47 469.16 289.54 469.37 288.86C469.57 288.18 469.85 286.44 469.99 285.00C470.13 283.56 470.36 281.42 470.49 280.25C471.06 275.50 470.66 270.30 469.47 267.00C468.71 264.88 467.36 262.06 466.49 260.75C466.27 260.41 465.78 259.67 465.42 259.12C464.61 257.88 461.12 254.24 459.25 252.68C457.86 251.52 455.08 249.59 453.82 248.91C453.44 248.70 452.65 248.29 452.06 247.99C451.47 247.69 450.93 247.34 450.86 247.22C450.78 247.10 450.53 247.00 450.30 247.00C450.07 247.00 449.43 246.79 448.88 246.52C446.48 245.38 445.54 245.00 445.14 245.00C444.91 245.00 444.48 244.87 444.19 244.72C443.44 244.31 438.93 243.23 438.58 243.36C438.35 243.45 438.31 244.68 438.42 248.30C438.54 252.58 438.00 266.48 437.63 268.50C437.56 268.84 437.34 271.09 437.13 273.50C436.92 275.91 436.57 279.39 436.36 281.25C435.27 290.76 434.95 293.46 434.49 297.12C434.21 299.32 433.77 302.59 433.51 304.38C433.25 306.16 432.96 308.30 432.87 309.12C432.79 309.95 432.62 311.02 432.50 311.50C432.37 311.98 432.15 313.61 431.99 315.12C431.84 316.64 431.55 318.43 431.36 319.11C431.16 319.79 431.00 320.59 431.00 320.89C431.00 321.77 429.44 324.31 428.52 324.93C428.05 325.24 427.35 325.50 426.95 325.50C426.19 325.50 424.75 324.87 424.44 324.40C424.14 323.94 424.23 319.10 424.61 315.25C426.27 298.88 426.63 293.16 426.62 283.38C426.62 276.57 426.52 273.85 426.19 271.12C425.55 265.99 424.61 262.44 423.45 260.71C423.20 260.35 423.00 259.97 423.00 259.89C423.00 259.58 420.30 256.37 418.96 255.10C417.57 253.76 414.63 251.47 413.68 250.97C413.37 250.81 413.07 250.60 413.00 250.50C412.89 250.34 410.43 248.96 409.08 248.30C408.83 248.18 408.37 247.95 408.06 247.79C406.47 246.97 404.64 246.17 402.93 245.55C402.14 245.26 400.90 244.79 400.18 244.51C399.46 244.23 398.68 244.00 398.45 244.00C398.23 244.00 397.44 243.79 396.71 243.53C394.79 242.85 391.16 242.08 387.12 241.51C381.64 240.72 381.48 240.77 382.27 243.00C384.73 250.05 385.89 268.91 385.27 291.62C384.78 309.77 384.23 317.68 382.59 330.12C382.37 331.77 382.10 333.91 381.99 334.88C381.88 335.84 381.65 337.30 381.49 338.12C381.33 338.95 381.05 340.69 380.87 342.00C380.33 345.97 379.51 350.69 379.25 351.38C379.11 351.74 379.00 352.45 379.00 352.95C379.00 353.46 378.77 354.66 378.50 355.62C378.23 356.59 378.00 357.70 378.00 358.09C378.00 358.49 377.79 359.67 377.52 360.72C377.07 362.53 376.14 366.67 375.89 368.00C375.82 368.34 375.45 369.01 375.06 369.48C374.11 370.61 373.23 370.45 372.77 369.07C372.04 366.88 371.31 364.34 370.23 360.25C370.07 359.63 369.77 358.56 369.56 357.88C369.36 357.19 369.04 356.01 368.86 355.25C368.68 354.49 368.29 352.92 368.00 351.75C367.71 350.58 367.33 348.95 367.14 348.12C366.96 347.30 366.64 345.89 366.42 345.00C365.46 340.97 364.19 334.87 363.52 331.00C363.22 329.28 362.86 327.31 362.74 326.62C362.61 325.94 362.39 324.59 362.25 323.62C362.11 322.66 361.82 320.81 361.62 319.50C361.41 318.19 361.13 315.94 361.00 314.50C360.87 313.06 360.61 310.75 360.44 309.38C360.24 307.77 360.12 303.62 360.12 297.75C360.12 288.09 360.35 285.33 361.51 281.07C361.78 280.07 362.00 279.06 362.01 278.82C362.01 278.57 362.23 277.93 362.50 277.38C362.77 276.82 362.99 276.21 363.01 276.00C363.02 275.79 363.36 275.01 363.75 274.25C364.15 273.49 364.62 272.59 364.79 272.25C364.96 271.91 365.47 271.16 365.92 270.58C366.38 270.01 366.75 269.42 366.75 269.27C366.75 268.88 365.42 268.94 364.32 269.37C363.80 269.57 362.64 269.90 361.75 270.10C360.86 270.30 359.34 270.70 358.38 271.00C357.41 271.30 356.06 271.70 355.38 271.90C354.69 272.09 353.77 272.42 353.34 272.63C352.90 272.83 352.36 273.00 352.12 273.00C351.89 273.00 351.35 273.16 350.91 273.36C350.13 273.72 348.81 274.22 346.88 274.88C346.32 275.06 344.92 275.62 343.76 276.11C342.60 276.60 341.53 277.00 341.38 277.01C341.24 277.01 340.84 277.23 340.50 277.50C340.16 277.77 339.67 277.99 339.41 277.99C339.16 278.00 338.67 278.22 338.32 278.50C337.97 278.77 337.52 279.00 337.32 279.00C337.12 279.00 336.67 279.22 336.32 279.50C335.97 279.77 335.52 280.00 335.32 280.00C335.12 280.00 334.67 280.22 334.32 280.50C333.97 280.77 333.52 281.00 333.32 281.00C333.12 281.00 332.67 281.22 332.32 281.50C331.97 281.77 331.48 282.00 331.23 282.00C330.98 282.00 330.70 282.12 330.61 282.28C330.52 282.43 330.09 282.71 329.66 282.90C329.23 283.09 328.43 283.53 327.88 283.88C327.32 284.22 326.52 284.67 326.08 284.87C325.64 285.08 325.21 285.36 325.12 285.51C325.03 285.66 324.71 285.88 324.41 286.01C323.83 286.26 322.74 286.93 320.98 288.12C320.37 288.53 319.70 288.98 319.48 289.12C315.92 291.39 315.08 292.01 309.43 296.48C298.14 305.41 290.66 313.27 280.62 326.73C279.80 327.84 278.62 329.41 278.00 330.23C276.98 331.56 274.43 335.49 273.93 336.48C273.82 336.70 273.48 337.29 273.18 337.79C272.21 339.39 269.79 343.67 268.95 345.25C268.70 345.73 268.40 346.29 268.29 346.50C267.97 347.08 267.45 348.08 267.21 348.56C267.09 348.80 266.91 349.20 266.79 349.44C266.67 349.68 266.45 350.13 266.29 350.44C266.13 350.75 265.91 351.20 265.79 351.44C265.67 351.68 265.45 352.13 265.29 352.44C265.13 352.75 264.91 353.20 264.79 353.44C264.67 353.68 264.45 354.13 264.29 354.44C263.89 355.22 263.54 355.92 263.29 356.44C263.18 356.68 262.88 357.27 262.64 357.75C261.79 359.40 261.52 361.42 261.85 363.54C262.02 364.60 262.28 365.61 262.42 365.79C262.57 365.98 262.77 366.39 262.87 366.71C263.33 368.22 266.02 371.20 267.70 372.08C269.81 373.18 271.55 373.99 272.88 374.50C273.70 374.82 274.54 375.21 274.75 375.38C275.08 375.65 276.94 376.74 279.33 378.07C279.77 378.31 280.46 378.73 280.88 378.99C281.29 379.26 282.41 379.94 283.38 380.50C284.34 381.06 285.46 381.74 285.88 382.00C286.29 382.26 287.45 382.96 288.47 383.55C289.48 384.14 290.72 384.87 291.22 385.16C292.76 386.08 293.47 386.48 294.25 386.89C294.65 387.11 295.06 387.39 295.14 387.52C295.22 387.65 295.64 387.92 296.08 388.13C296.52 388.33 297.32 388.78 297.88 389.13C298.43 389.47 299.12 389.86 299.41 389.99C299.71 390.12 300.03 390.34 300.12 390.49C300.21 390.64 300.64 390.92 301.08 391.13C301.82 391.47 302.40 391.81 304.38 393.04C304.79 393.29 305.48 393.67 305.92 393.87C306.36 394.08 306.79 394.36 306.88 394.51C306.97 394.66 307.29 394.88 307.59 395.01C307.88 395.14 308.57 395.53 309.12 395.87C309.68 396.22 310.48 396.67 310.92 396.87C311.36 397.08 311.78 397.35 311.86 397.48C311.94 397.61 312.37 397.91 312.82 398.14C314.43 398.98 315.39 399.53 316.12 400.00C316.54 400.26 317.66 400.94 318.62 401.50C319.59 402.06 320.68 402.72 321.04 402.95C321.41 403.18 322.76 403.98 324.04 404.72C326.74 406.27 328.73 407.88 329.51 409.14L330.05 410.02L329.41 410.98C328.85 411.84 328.63 411.97 327.45 412.13C326.72 412.23 323.71 412.34 320.75 412.38C317.79 412.41 309.35 412.57 301.98 412.72C277.72 413.23 257.63 412.34 251.27 410.47C250.39 410.21 249.50 410.00 249.29 410.00C249.08 410.00 248.65 409.76 248.34 409.47C248.00 409.15 247.61 409.00 247.37 409.09C247.01 409.23 246.98 409.55 247.12 411.44C247.29 413.86 247.89 418.51 248.25 420.25C248.92 423.52 249.10 424.27 249.56 425.88C250.55 429.25 251.96 433.26 252.58 434.43C252.81 434.87 253.00 435.37 253.01 435.55C253.01 435.73 253.23 436.16 253.50 436.50C253.77 436.84 253.99 437.25 253.99 437.39C254.00 437.85 255.39 440.22 257.36 443.16C259.52 446.37 263.60 450.32 265.50 451.05C265.84 451.18 266.29 451.43 266.50 451.61C266.71 451.79 267.16 452.00 267.50 452.07C267.84 452.15 268.63 452.38 269.25 452.58C270.70 453.05 274.60 453.88 277.00 454.23C281.78 454.92 284.62 455.03 296.29 454.95L308.46 454.88L309.23 455.61C309.88 456.23 310.00 456.53 310.00 457.52C310.00 458.56 309.89 458.79 309.10 459.49C307.61 460.79 305.17 461.64 301.87 462.01C300.63 462.14 298.50 462.42 297.12 462.61C290.01 463.64 277.82 464.81 269.62 465.27C264.57 465.56 252.77 465.46 248.94 465.10C247.29 464.95 247.25 464.95 247.25 465.53C247.25 466.26 247.91 469.12 248.54 471.06C248.79 471.85 249.00 472.67 249.00 472.87C249.00 473.07 249.22 473.72 249.48 474.31C249.75 474.89 250.22 476.05 250.54 476.88C250.85 477.70 251.31 478.67 251.55 479.04C251.80 479.40 252.00 479.85 252.01 480.04C252.01 480.22 252.23 480.66 252.50 481.00C252.77 481.34 252.99 481.71 252.99 481.81C253.00 482.13 256.30 486.82 257.19 487.79C257.68 488.31 258.22 488.96 258.41 489.22C259.14 490.26 264.18 494.18 265.88 495.03C266.29 495.24 266.85 495.53 267.12 495.68C269.61 497.01 273.21 497.96 277.00 498.28C280.35 498.57 288.38 498.28 291.81 497.75C292.53 497.64 294.08 497.42 295.25 497.26C298.73 496.78 302.63 496.05 307.25 494.99C308.42 494.72 310.05 494.35 310.88 494.16C311.70 493.97 312.91 493.63 313.57 493.41C314.23 493.18 314.96 493.00 315.20 493.00C315.57 493.00 316.79 492.64 319.62 491.70C320.04 491.56 320.98 491.30 321.71 491.12C322.45 490.93 323.46 490.59 323.96 490.34C324.62 490.03 325.47 489.91 327.03 489.91C328.99 489.92 329.26 489.98 330.09 490.61C330.96 491.28 331.00 491.37 331.00 492.84C331.00 494.22 330.92 494.46 330.19 495.25C329.37 496.13 328.67 496.53 326.38 497.44C323.87 498.44 322.35 499.06 321.31 499.53C320.72 499.79 320.11 500.00 319.96 500.00C319.81 500.00 319.22 500.21 318.65 500.47C317.71 500.89 317.22 501.08 315.12 501.81C314.71 501.95 313.91 502.28 313.35 502.53C312.78 502.79 312.14 503.00 311.91 503.00C311.68 503.00 311.08 503.23 310.57 503.50C310.05 503.77 309.41 504.00 309.13 504.01C308.85 504.01 308.18 504.23 307.62 504.50C307.07 504.77 306.40 504.99 306.12 505.00C305.85 505.01 305.18 505.23 304.62 505.50C304.07 505.77 303.40 505.99 303.12 506.00C302.85 506.01 302.18 506.23 301.62 506.50C301.07 506.77 300.46 506.99 300.25 506.99C300.04 507.00 299.20 507.22 298.38 507.49C297.55 507.77 296.09 508.21 295.12 508.48C294.16 508.75 292.76 509.16 292.00 509.39C289.48 510.16 284.15 511.35 280.25 512.03C275.50 512.84 274.43 512.99 273.19 512.99C271.54 513.00 271.64 513.55 273.56 515.12C280.64 520.95 284.78 524.07 288.14 526.12C289.07 526.69 291.88 528.37 292.62 528.81C292.90 528.97 293.43 529.31 293.80 529.55C294.17 529.80 294.62 530.00 294.78 530.00C294.95 530.00 295.26 530.16 295.48 530.36C296.14 530.95 302.62 533.53 304.89 534.09C305.59 534.27 306.27 534.48 306.41 534.57C306.55 534.66 307.84 534.92 309.27 535.17C314.08 535.98 320.98 535.63 325.10 534.37C325.78 534.17 326.63 534.00 327.00 534.00C327.37 534.00 328.39 533.79 329.27 533.53C330.15 533.27 331.44 532.94 332.12 532.80C333.66 532.47 339.07 531.17 343.75 530.00C344.85 529.73 346.65 529.27 347.75 529.00C348.85 528.73 350.65 528.27 351.75 528.00C352.85 527.73 354.65 527.27 355.75 527.00C356.85 526.73 358.65 526.27 359.75 526.00C360.85 525.73 362.62 525.28 363.69 525.02C366.36 524.35 367.67 524.00 369.12 523.56C369.81 523.35 371.17 523.13 372.14 523.06C373.86 522.94 373.94 522.97 374.83 523.75C375.61 524.43 375.75 524.71 375.75 525.60C375.75 526.70 375.42 527.35 374.15 528.71C373.30 529.62 371.38 531.00 370.96 531.00C370.81 531.00 370.28 531.21 369.78 531.46C367.52 532.59 366.60 533.00 366.29 533.00C366.10 533.00 365.67 533.23 365.32 533.50C364.97 533.77 364.51 534.00 364.31 534.00C364.10 534.00 363.41 534.24 362.78 534.53C360.91 535.38 359.44 536.04 358.38 536.50C356.19 537.44 355.57 537.72 354.23 538.35C353.46 538.71 352.67 539.00 352.48 539.01C352.28 539.01 351.84 539.23 351.50 539.50C351.16 539.77 350.75 539.99 350.59 539.99C350.34 540.00 349.70 540.26 346.50 541.68C346.02 541.89 345.15 542.28 344.56 542.53C343.98 542.79 343.02 543.21 342.44 543.47C341.85 543.72 340.98 544.10 340.50 544.31C340.02 544.52 339.00 544.99 338.23 545.35C337.46 545.71 336.67 546.00 336.48 546.01C336.28 546.01 335.84 546.23 335.50 546.50C335.16 546.77 334.75 546.99 334.59 546.99C334.34 547.00 333.70 547.26 330.50 548.68C330.02 548.89 329.15 549.28 328.56 549.53C327.98 549.79 327.02 550.21 326.44 550.47C324.27 551.42 323.44 551.87 323.33 552.15C323.10 552.74 330.20 559.63 333.99 562.50C336.21 564.19 338.20 565.55 338.92 565.88C339.36 566.08 339.78 566.35 339.86 566.48C339.94 566.61 340.32 566.87 340.69 567.06C341.07 567.25 341.66 567.56 342.00 567.74C342.34 567.93 342.82 568.17 343.06 568.29C343.30 568.41 343.70 568.60 343.94 568.71C354.63 573.92 365.31 574.86 378.00 571.73C378.62 571.58 379.74 571.31 380.50 571.14C382.14 570.76 384.67 569.96 387.94 568.79C388.38 568.63 389.12 568.37 389.56 568.22C390.01 568.06 390.82 567.73 391.38 567.48C391.93 567.23 393.16 566.72 394.12 566.36C395.09 565.99 396.16 565.56 396.50 565.39C396.84 565.22 397.69 564.83 398.38 564.52C400.89 563.39 401.88 562.92 402.25 562.71C402.46 562.59 402.91 562.37 403.25 562.22C403.59 562.07 404.04 561.85 404.25 561.72C404.46 561.60 404.91 561.37 405.25 561.22C405.59 561.07 406.04 560.85 406.25 560.72C406.46 560.60 406.91 560.37 407.25 560.22C407.59 560.07 408.04 559.85 408.25 559.72C408.46 559.60 408.91 559.37 409.25 559.22C409.59 559.07 410.04 558.85 410.25 558.73C410.46 558.61 411.02 558.30 411.50 558.05C411.98 557.80 412.63 557.46 412.94 557.30C413.25 557.13 413.75 556.87 414.06 556.70C414.37 556.54 415.04 556.20 415.55 555.95C416.05 555.71 416.54 555.39 416.62 555.25C416.71 555.11 416.98 555.00 417.23 555.00C417.48 555.00 417.82 554.84 417.98 554.64C418.15 554.45 418.98 553.93 419.83 553.50C420.68 553.07 422.39 552.17 423.62 551.49C424.86 550.82 426.21 550.10 426.62 549.89C427.04 549.68 427.54 549.41 427.75 549.29C427.96 549.17 428.39 548.94 428.72 548.77C429.05 548.59 429.68 548.25 430.13 548.00C430.91 547.56 431.45 547.27 432.50 546.75C432.77 546.61 433.23 546.39 433.50 546.25C433.77 546.11 434.23 545.89 434.50 545.75C434.77 545.61 435.23 545.39 435.50 545.25C435.77 545.11 436.23 544.89 436.50 544.75C436.77 544.61 437.23 544.39 437.50 544.25C437.78 544.11 438.23 543.89 438.50 543.75C438.78 543.61 439.20 543.40 439.44 543.27C439.68 543.14 440.44 542.80 441.12 542.50C441.81 542.21 442.82 541.76 443.38 541.50C444.95 540.77 446.94 540.00 447.26 540.00C447.42 540.00 447.90 539.83 448.34 539.63C449.16 539.24 451.16 538.63 452.88 538.25C457.83 537.15 458.08 537.12 464.12 537.12C468.90 537.12 470.48 537.21 471.88 537.55C472.84 537.78 474.09 538.03 474.65 538.11C475.22 538.18 476.01 538.41 476.40 538.62C476.80 538.83 477.29 539.00 477.50 539.00C478.30 539.00 482.46 540.77 484.72 542.06C485.22 542.35 485.92 542.73 486.29 542.92C486.65 543.11 487.09 543.43 487.25 543.63C487.42 543.83 487.66 544.00 487.79 544.00C488.57 544.00 494.08 548.63 497.63 552.28C501.28 556.03 504.53 560.02 510.21 567.75C512.80 571.28 513.57 572.25 513.76 572.25C514.21 572.25 516.62 568.88 518.24 566.02C518.66 565.27 519.00 564.56 519.00 564.45C519.00 564.33 519.20 563.93 519.44 563.56C519.68 563.20 520.00 562.55 520.16 562.14C520.32 561.72 520.69 560.76 521.00 560.00C522.41 556.47 523.50 550.13 523.49 545.50C523.49 542.28 522.90 536.80 522.38 535.15C522.17 534.47 522.00 533.66 522.00 533.34C522.00 533.01 521.77 532.05 521.50 531.19C521.22 530.33 520.76 528.89 520.47 528.00C519.43 524.76 518.95 523.54 517.18 519.75C516.70 518.72 516.23 517.59 516.13 517.25C516.02 516.91 515.85 516.51 515.75 516.38C515.53 516.10 514.84 514.87 513.60 512.59C511.62 508.94 507.34 502.29 504.87 499.04C503.47 497.20 498.24 490.65 496.86 489.00C494.22 485.87 487.25 478.57 483.93 475.47C479.63 471.46 475.45 467.20 474.60 465.98C473.90 464.95 473.97 464.55 475.02 463.77L475.78 463.22L520.45 463.24C545.02 463.25 565.31 463.25 565.54 463.25C566.06 463.25 566.59 464.80 567.12 467.88C568.45 475.64 570.34 483.74 571.76 487.75C572.60 490.13 574.20 493.95 574.65 494.68C574.84 494.98 575.00 495.34 575.00 495.48C575.00 495.61 575.46 496.49 576.02 497.42C576.59 498.36 577.12 499.25 577.21 499.40C577.72 500.27 579.77 503.20 580.16 503.62C580.42 503.90 581.19 504.79 581.88 505.60C583.45 507.47 587.63 511.23 589.47 512.44C590.24 512.95 590.99 513.45 591.12 513.56C591.78 514.07 593.29 515.00 593.47 515.00C593.58 515.00 593.88 515.23 594.12 515.50C594.37 515.77 594.76 516.00 594.98 516.01C595.20 516.01 595.66 516.23 596.00 516.50C596.34 516.77 596.79 516.99 597.00 517.00C597.21 517.01 597.66 517.23 598.00 517.50C598.34 517.77 598.74 517.99 598.88 517.99C599.01 518.00 599.63 518.24 600.25 518.54C600.87 518.83 601.83 519.27 602.38 519.51C603.30 519.91 603.89 520.13 607.38 521.35C608.06 521.59 609.02 521.89 609.50 522.00C609.98 522.12 610.88 522.38 611.50 522.58C613.73 523.29 617.78 524.28 621.00 524.89C622.03 525.09 623.04 525.32 623.25 525.40C623.91 525.66 630.75 526.72 636.00 527.38C646.74 528.71 660.80 528.81 668.12 527.61C672.43 526.90 676.30 526.02 678.50 525.24C680.20 524.64 683.60 523.24 684.50 522.77C685.13 522.44 686.11 521.93 686.50 521.72C688.97 520.41 691.82 518.35 694.21 516.15C695.14 515.30 698.68 510.96 699.21 510.02C700.31 508.10 700.72 507.34 701.21 506.31C701.33 506.07 701.54 505.65 701.68 505.38C701.92 504.89 702.25 504.03 702.72 502.56C703.53 500.10 703.82 499.01 704.01 497.77C704.13 497.00 704.36 495.64 704.53 494.75C704.95 492.44 704.95 484.54 704.52 482.38C703.62 477.80 703.01 475.43 702.37 474.09C702.17 473.65 702.00 473.15 701.99 472.96C701.99 472.78 701.77 472.34 701.50 472.00C701.23 471.66 701.01 471.21 701.00 471.00C700.99 470.79 700.77 470.34 700.50 470.00C700.23 469.66 700.01 469.19 700.01 468.97C700.00 468.74 699.84 468.43 699.64 468.26C699.44 468.09 698.97 467.43 698.60 466.79C696.69 463.49 690.72 457.50 686.38 454.50C685.88 454.16 685.34 453.76 685.17 453.62C684.69 453.20 679.93 450.13 679.25 449.80C678.91 449.63 678.17 449.22 677.62 448.87C677.08 448.53 676.27 448.09 675.84 447.90C675.41 447.71 674.98 447.43 674.89 447.28C674.80 447.12 674.55 447.00 674.34 447.00C674.13 447.00 673.67 446.77 673.32 446.50C672.97 446.23 672.50 446.00 672.28 445.99C672.06 445.99 671.59 445.77 671.25 445.50C670.91 445.23 670.47 445.01 670.29 445.01C670.10 445.00 669.65 444.79 669.29 444.54C668.92 444.29 667.95 443.81 667.12 443.48C666.30 443.15 665.29 442.69 664.88 442.44C664.46 442.20 663.94 442.00 663.72 442.00C663.50 442.00 663.03 441.77 662.68 441.50C662.33 441.23 661.90 441.00 661.71 441.00C661.53 441.00 660.92 440.78 660.38 440.51C659.39 440.03 658.44 439.62 655.75 438.51C654.99 438.20 653.92 437.75 653.38 437.50C652.83 437.25 651.76 436.80 651.00 436.50C650.24 436.20 649.17 435.74 648.62 435.49C647.56 434.99 644.26 433.67 642.65 433.08C642.12 432.89 641.44 432.56 641.16 432.36C640.87 432.16 640.48 432.00 640.28 432.00C640.09 432.00 639.41 431.76 638.78 431.47C638.14 431.18 637.17 430.75 636.62 430.51C636.08 430.27 635.12 429.84 634.50 429.56C633.88 429.27 633.09 428.96 632.75 428.86C632.41 428.76 631.90 428.53 631.63 428.34C631.36 428.15 630.95 428.00 630.73 428.00C630.50 428.00 630.03 427.77 629.68 427.50C629.33 427.23 628.84 427.00 628.59 426.99C628.33 426.99 627.84 426.77 627.50 426.50C627.16 426.23 626.73 426.01 626.55 426.01C626.37 426.00 625.75 425.76 625.17 425.46C624.60 425.16 623.93 424.82 623.69 424.71C623.45 424.59 623.02 424.39 622.75 424.25C622.48 424.11 622.02 423.89 621.75 423.75C621.48 423.61 621.02 423.39 620.75 423.25C620.48 423.11 620.02 422.89 619.75 422.75C619.48 422.61 619.02 422.39 618.75 422.25C617.64 421.69 617.14 421.43 616.28 420.94C615.78 420.65 614.66 420.05 613.78 419.59C612.90 419.14 612.00 418.62 611.78 418.43C611.56 418.25 611.09 417.96 610.75 417.80C610.41 417.63 609.76 417.27 609.31 417.00C608.51 416.51 608.27 416.36 605.90 414.88C605.24 414.46 604.32 413.84 603.85 413.50C603.39 413.16 602.16 412.26 601.12 411.50C593.16 405.70 584.78 397.02 581.20 390.88C580.75 390.10 580.18 389.16 579.94 388.79C579.71 388.42 579.27 387.65 578.98 387.06C578.68 386.47 578.34 385.93 578.22 385.86C578.10 385.78 578.00 385.55 578.00 385.34C578.00 385.13 577.79 384.65 577.54 384.29C576.87 383.33 574.60 377.71 573.84 375.12C573.16 372.80 572.46 370.13 572.21 368.88C572.08 368.19 571.80 366.89 571.60 366.00C570.92 362.97 570.26 355.08 570.25 349.96C570.25 344.73 570.92 337.02 571.62 334.36C571.83 333.55 572.00 332.66 572.00 332.36C572.00 332.07 572.21 331.11 572.47 330.23C572.72 329.35 573.07 328.12 573.23 327.50C573.89 325.04 574.27 323.84 574.63 323.09C574.83 322.65 575.00 322.12 575.00 321.90C575.00 321.68 575.23 321.08 575.50 320.57C575.77 320.05 576.00 319.50 576.00 319.34C576.00 319.17 576.16 318.72 576.36 318.33C576.56 317.94 577.01 316.95 577.37 316.12C577.74 315.30 578.15 314.40 578.30 314.12C578.46 313.85 578.67 313.43 578.79 313.19C579.19 312.36 579.55 311.68 580.06 310.78C580.35 310.28 580.74 309.59 580.93 309.25C581.12 308.91 581.75 307.88 582.33 306.97C582.90 306.07 583.71 304.79 584.12 304.13C586.53 300.32 593.39 292.53 597.99 288.38C599.93 286.63 605.20 282.42 606.76 281.38C607.37 280.96 607.93 280.57 608.00 280.50C608.29 280.20 610.26 279.00 610.46 279.00C610.58 279.00 610.88 278.78 611.12 278.50C611.37 278.23 611.69 278.00 611.83 278.00C611.97 278.00 612.26 277.84 612.48 277.65C612.70 277.46 613.54 276.96 614.35 276.53C615.17 276.10 615.97 275.63 616.14 275.49C616.57 275.13 618.82 274.00 619.12 274.00C619.26 273.99 619.66 273.77 620.00 273.50C620.34 273.23 620.79 273.01 621.00 273.00C621.21 272.99 621.66 272.77 622.00 272.50C622.34 272.23 622.79 272.01 623.00 272.00C623.21 271.99 623.66 271.77 624.00 271.50C624.34 271.23 624.79 271.01 625.00 271.01C625.35 271.00 626.47 270.52 628.55 269.47C629.06 269.21 629.60 269.00 629.76 269.00C629.92 269.00 630.40 268.84 630.84 268.64C631.86 268.17 634.37 267.29 635.55 266.99C636.06 266.86 636.85 266.60 637.30 266.41C637.75 266.22 638.91 265.83 639.88 265.54C640.84 265.25 642.24 264.83 643.00 264.60C647.16 263.35 657.00 261.36 662.62 260.64C670.69 259.60 674.92 259.38 686.50 259.38C692.97 259.38 700.30 259.52 703.50 259.71C712.55 260.24 724.48 261.36 730.88 262.27C731.84 262.41 733.47 262.64 734.50 262.77C735.53 262.91 737.51 263.25 738.89 263.51C740.27 263.78 741.74 264.00 742.15 264.00C742.56 264.00 743.55 264.17 744.36 264.38C745.16 264.59 746.60 264.87 747.56 265.01C748.51 265.14 749.85 265.44 750.52 265.66L751.75 266.06L751.81 304.59C751.85 325.78 751.79 343.32 751.68 343.56C751.50 343.97 750.55 344.00 736.89 344.00L722.30 344.00L721.72 343.06C721.40 342.55 721.01 341.83 720.85 341.47C720.68 341.11 720.43 340.73 720.27 340.64C720.12 340.55 720.00 340.27 720.00 340.02C720.00 339.77 719.84 339.43 719.65 339.27C719.29 338.97 718.00 336.51 717.99 336.10C717.99 335.98 717.77 335.59 717.50 335.25C717.23 334.91 717.01 334.47 717.01 334.29C717.00 334.10 716.79 333.65 716.54 333.29C716.29 332.92 715.71 331.73 715.26 330.64C714.82 329.55 714.36 328.48 714.26 328.27C714.03 327.78 713.24 326.02 712.53 324.43C712.24 323.77 712.00 323.11 712.00 322.96C712.00 322.81 711.79 322.22 711.53 321.65C711.10 320.69 710.83 319.99 710.20 318.12C710.06 317.71 709.75 316.81 709.51 316.12C709.28 315.44 708.89 314.31 708.65 313.62C707.90 311.44 706.67 306.72 706.16 304.00C705.86 302.41 705.83 302.36 704.69 301.82C703.53 301.27 701.52 300.69 699.12 300.22C698.44 300.08 697.09 299.80 696.12 299.60C692.56 298.86 686.82 298.46 678.12 298.33C670.14 298.21 669.06 298.24 665.75 298.72C663.76 299.01 661.51 299.41 660.75 299.62C659.99 299.83 659.15 300.00 658.88 300.01C658.60 300.01 657.92 300.23 657.38 300.50C656.83 300.77 656.17 300.99 655.92 300.99C655.68 301.00 655.06 301.21 654.55 301.47C654.04 301.73 653.01 302.24 652.25 302.61C647.16 305.06 643.73 308.08 640.48 313.00C639.66 314.22 639.00 315.31 639.00 315.42C639.00 315.53 638.79 316.07 638.52 316.62C636.86 320.11 636.04 323.14 635.24 328.75C634.97 330.62 634.98 338.58 635.26 340.12C635.81 343.28 636.44 345.49 637.79 349.00C638.24 350.18 640.32 353.83 641.32 355.20C642.42 356.71 645.69 360.40 647.03 361.64C647.92 362.47 650.56 364.63 652.75 366.34C652.96 366.50 653.74 367.02 654.50 367.49C655.26 367.97 655.93 368.42 656.00 368.49C656.17 368.67 658.02 369.86 658.50 370.09C658.71 370.19 659.33 370.55 659.88 370.88C660.42 371.21 661.27 371.69 661.75 371.95C663.42 372.84 664.63 373.55 664.86 373.77C664.99 373.90 665.27 374.00 665.49 374.01C665.70 374.01 666.16 374.23 666.50 374.50C666.84 374.77 667.29 374.99 667.50 375.00C667.71 375.01 668.16 375.23 668.50 375.50C668.84 375.77 669.29 375.99 669.50 376.00C669.71 376.01 670.16 376.23 670.50 376.50C670.84 376.77 671.34 376.99 671.61 376.99C671.87 377.00 672.26 377.16 672.48 377.35C672.70 377.55 673.89 378.12 675.12 378.63C677.29 379.51 679.52 380.50 681.62 381.52C682.17 381.78 682.73 382.00 682.85 382.00C682.97 382.00 683.59 382.24 684.22 382.52C684.86 382.81 685.83 383.25 686.38 383.50C687.55 384.03 690.95 385.41 692.35 385.92C692.88 386.11 693.56 386.44 693.84 386.64C694.13 386.84 694.52 387.00 694.72 387.00C695.07 387.00 696.61 387.65 698.30 388.52C698.81 388.79 699.45 389.00 699.72 389.00C700.00 389.00 700.29 389.11 700.36 389.23C700.44 389.36 701.15 389.71 701.94 390.00C702.73 390.30 704.11 390.87 705.00 391.28C708.31 392.78 708.65 392.94 709.75 393.44C710.37 393.72 711.61 394.26 712.50 394.63C713.39 395.00 714.30 395.46 714.52 395.65C714.74 395.84 715.09 396.00 715.30 396.00C715.51 396.00 715.97 396.23 716.32 396.50C716.67 396.77 717.18 397.00 717.46 397.00C717.74 397.00 718.03 397.10 718.10 397.22C718.18 397.33 719.17 397.90 720.31 398.47C721.44 399.05 722.54 399.61 722.75 399.73C722.96 399.85 723.41 400.07 723.75 400.22C724.09 400.38 724.83 400.78 725.38 401.13C725.92 401.47 726.71 401.92 727.12 402.12C727.54 402.33 728.24 402.72 728.69 403.00C730.05 403.84 731.08 404.46 732.10 405.06C733.33 405.78 733.63 405.97 734.97 406.88C735.58 407.29 736.27 407.74 736.52 407.89C737.77 408.63 742.90 412.51 744.62 414.02C752.16 420.62 756.52 425.66 761.18 433.14C761.97 434.40 763.00 436.37 763.01 436.61C763.01 436.75 763.23 437.16 763.50 437.50C763.77 437.84 763.99 438.22 763.99 438.34C764.00 438.45 764.45 439.50 765.00 440.65C765.55 441.81 766.00 442.93 766.00 443.13C766.00 443.33 766.23 443.92 766.50 444.43C766.77 444.95 767.00 445.59 767.00 445.87C767.00 446.15 767.17 446.70 767.38 447.10C767.59 447.51 767.92 448.52 768.11 449.35C768.30 450.19 768.57 451.32 768.71 451.88C771.50 462.79 771.73 475.97 769.34 488.75C768.71 492.16 768.49 493.05 767.53 496.00C767.24 496.89 767.00 497.79 766.99 498.00C766.99 498.21 766.77 498.82 766.50 499.38C766.23 499.93 766.01 500.58 766.01 500.82C766.00 501.07 765.77 501.71 765.50 502.25C765.23 502.79 765.00 503.45 765.00 503.73C765.00 504.00 764.90 504.28 764.78 504.35C764.67 504.43 764.20 505.42 763.75 506.56C763.30 507.69 762.72 508.92 762.46 509.29C762.21 509.65 762.00 510.04 762.00 510.14C762.00 510.51 760.69 512.98 760.35 513.27C760.16 513.43 760.00 513.71 760.00 513.89C760.00 514.07 759.58 514.87 759.06 515.68C758.55 516.48 757.98 517.36 757.81 517.63C751.16 528.07 742.02 537.51 730.77 545.56C729.66 546.35 728.66 547.00 728.54 547.00C728.41 547.00 728.17 547.18 727.99 547.39C727.81 547.60 727.32 547.94 726.89 548.14C726.47 548.34 725.34 549.01 724.38 549.62C723.41 550.23 722.29 550.91 721.88 551.12C721.46 551.33 720.23 552.01 719.12 552.63C718.02 553.24 716.96 553.81 716.75 553.89C716.54 553.97 716.15 554.16 715.88 554.31C715.60 554.46 715.21 554.66 715.00 554.76C714.79 554.86 714.16 555.18 713.59 555.47C713.02 555.76 712.42 556.00 712.26 556.00C712.09 556.00 711.67 556.23 711.32 556.50C710.97 556.77 710.50 557.00 710.28 557.00C710.06 557.00 709.54 557.18 709.12 557.40C708.71 557.61 707.98 557.94 707.50 558.12C707.02 558.30 706.01 558.69 705.25 559.00C704.49 559.30 703.26 559.75 702.50 560.00C701.74 560.25 700.17 560.80 699.00 561.23C697.83 561.65 696.73 562.00 696.54 562.00C696.35 562.00 695.85 562.16 695.41 562.36C694.43 562.81 690.59 563.85 686.62 564.75C685.94 564.91 684.52 565.25 683.47 565.52C682.42 565.78 681.24 566.00 680.83 566.00C680.43 566.00 679.46 566.17 678.66 566.38C677.87 566.58 676.13 566.87 674.80 567.01C673.47 567.16 671.98 567.38 671.50 567.50C670.17 567.85 659.22 568.70 653.88 568.88C642.83 569.24 620.62 568.14 608.00 566.60C606.28 566.39 603.86 566.11 602.62 565.97C601.39 565.83 599.98 565.62 599.50 565.50C599.02 565.38 597.95 565.21 597.12 565.13C595.34 564.95 590.78 564.17 587.56 563.49C582.97 562.52 580.60 562.00 579.50 561.73C578.88 561.58 577.81 561.34 577.12 561.20C576.44 561.06 575.17 560.74 574.31 560.48C571.76 559.70 571.88 559.65 568.73 563.19C563.81 568.72 558.92 573.77 554.58 577.79C550.62 581.45 544.45 586.82 542.50 588.29C542.02 588.65 541.29 589.25 540.88 589.62C540.46 589.99 539.84 590.47 539.50 590.70C539.16 590.93 538.14 591.69 537.25 592.41C534.96 594.24 531.57 596.63 527.00 599.66C525.69 600.52 524.15 601.58 523.56 602.00C522.98 602.42 522.30 602.84 522.06 602.92C521.82 603.01 521.43 603.25 521.19 603.45C520.67 603.90 519.92 604.35 518.83 604.86C518.39 605.07 517.96 605.36 517.88 605.50C517.79 605.64 517.36 605.92 516.92 606.13C516.48 606.33 515.67 606.78 515.12 607.12C514.58 607.47 513.77 607.91 513.34 608.10C512.91 608.29 512.48 608.57 512.39 608.72C512.30 608.88 512.02 609.00 511.77 609.00C511.52 609.00 511.18 609.16 511.02 609.36C510.85 609.55 509.91 610.12 508.92 610.61C507.23 611.45 506.92 611.61 505.81 612.25C505.57 612.39 505.09 612.63 504.75 612.78C504.41 612.93 503.96 613.15 503.75 613.28C503.54 613.40 503.09 613.63 502.75 613.78C502.41 613.93 501.96 614.15 501.75 614.28C501.54 614.40 501.09 614.63 500.75 614.78C499.89 615.16 498.09 615.96 496.75 616.57C494.56 617.56 493.50 618.03 492.44 618.49C491.86 618.74 490.86 619.19 490.22 619.48C489.59 619.76 488.94 620.00 488.77 620.00C488.61 620.00 488.06 620.21 487.55 620.47C487.04 620.73 486.23 621.08 485.75 621.25C483.29 622.10 482.82 622.29 482.21 622.63C481.85 622.83 481.34 623.00 481.09 623.01C480.83 623.01 480.18 623.23 479.62 623.50C479.07 623.77 478.42 623.99 478.18 623.99C477.93 624.00 477.29 624.23 476.75 624.50C476.21 624.77 475.51 625.00 475.20 625.01C474.88 625.01 474.18 625.23 473.62 625.50C473.07 625.77 472.46 625.99 472.25 625.99C472.04 626.00 471.20 626.22 470.38 626.49C469.55 626.77 468.03 627.22 467.00 627.51C465.97 627.80 464.56 628.20 463.88 628.41C463.19 628.61 461.89 628.95 461.00 629.15C460.11 629.36 458.48 629.74 457.38 630.00C446.81 632.50 434.68 634.32 423.88 635.01C419.85 635.27 405.51 635.50 402.62 635.35ZM63.17 563.83C63.08 563.74 63.00 558.70 63.00 552.63C63.00 541.20 63.02 541.00 64.02 541.00C64.25 541.00 64.58 540.82 64.76 540.61C64.94 540.40 65.43 540.06 65.86 539.87C66.28 539.68 67.41 539.06 68.38 538.51C69.34 537.95 70.46 537.33 70.88 537.12C71.29 536.92 72.08 536.47 72.62 536.13C73.17 535.78 73.91 535.38 74.25 535.22C74.59 535.07 75.04 534.85 75.25 534.72C75.46 534.60 75.91 534.37 76.25 534.22C76.59 534.07 77.04 533.85 77.25 533.72C77.46 533.60 77.91 533.37 78.25 533.22C78.59 533.07 79.04 532.85 79.25 532.72C79.46 532.60 79.91 532.37 80.25 532.22C80.59 532.07 81.04 531.85 81.25 531.72C81.46 531.60 81.91 531.38 82.25 531.23C82.59 531.08 83.33 530.74 83.88 530.48C84.42 530.21 85.02 530.00 85.20 530.00C85.38 530.00 85.94 529.79 86.45 529.53C88.06 528.70 89.75 528.00 90.13 528.00C90.34 528.00 90.92 527.77 91.43 527.50C91.95 527.23 92.57 527.00 92.82 527.00C93.07 527.00 93.75 526.79 94.33 526.53C94.90 526.27 95.83 525.98 96.40 525.89C96.96 525.80 97.77 525.50 98.21 525.24L99.00 524.76L99.00 413.99C99.00 340.85 98.92 303.06 98.75 302.75C98.59 302.45 98.00 302.18 97.13 302.00C96.38 301.84 95.70 301.62 95.63 301.51C95.56 301.40 95.19 301.23 94.81 301.14C93.57 300.84 91.47 300.01 88.22 298.53C87.59 298.24 86.90 298.00 86.69 298.00C86.49 298.00 86.03 297.77 85.68 297.50C85.33 297.22 84.91 297.00 84.74 297.00C84.58 297.00 83.98 296.76 83.41 296.47C82.84 296.18 82.18 295.84 81.94 295.72C81.70 295.60 81.25 295.37 80.94 295.21C80.63 295.05 80.18 294.83 79.94 294.71C79.70 294.59 79.27 294.39 79.00 294.25C78.73 294.11 78.28 293.89 78.00 293.75C77.73 293.61 77.28 293.39 77.00 293.25C76.73 293.11 76.25 292.87 75.94 292.70C75.63 292.54 74.98 292.20 74.50 291.95C74.02 291.70 73.46 291.40 73.25 291.29C72.28 290.76 71.25 290.21 69.83 289.50C68.98 289.06 68.15 288.55 67.98 288.36C67.82 288.16 67.48 288.00 67.23 288.00C66.98 288.00 66.71 287.89 66.62 287.75C66.54 287.61 66.05 287.29 65.55 287.03C65.04 286.77 64.26 286.37 63.81 286.14L63.00 285.71L63.00 275.03C63.00 267.06 63.08 264.27 63.30 264.05C63.74 263.61 195.51 263.61 195.95 264.05C196.17 264.27 196.25 267.03 196.25 274.91L196.25 285.46L195.11 286.23C194.49 286.65 193.83 287.00 193.64 287.00C193.46 287.00 193.18 287.16 193.02 287.35C192.71 287.73 190.24 289.00 189.83 289.00C189.69 289.00 189.37 289.23 189.12 289.50C188.88 289.78 188.51 290.00 188.31 290.00C188.12 290.00 187.67 290.22 187.32 290.50C186.97 290.77 186.48 291.00 186.23 291.00C185.98 291.00 185.71 291.11 185.62 291.25C185.54 291.39 185.05 291.71 184.55 291.95C184.04 292.20 183.40 292.52 183.12 292.66C182.11 293.19 181.49 293.51 181.00 293.75C180.72 293.89 180.25 294.13 179.94 294.29C179.63 294.45 179.21 294.66 179.00 294.75C178.79 294.84 178.37 295.05 178.06 295.21C177.75 295.37 177.25 295.63 176.94 295.79C176.63 295.95 176.18 296.17 175.94 296.29C175.70 296.41 175.30 296.60 175.06 296.71C174.82 296.83 174.06 297.18 173.38 297.50C172.69 297.82 171.84 298.22 171.50 298.39C171.16 298.55 170.09 298.99 169.12 299.35C168.16 299.72 166.96 300.24 166.45 300.51C165.94 300.78 165.32 301.00 165.08 301.01C164.83 301.01 164.18 301.23 163.62 301.50C163.07 301.77 162.38 301.99 162.08 301.99C161.77 302.00 161.24 302.25 160.88 302.56L160.24 303.12L160.25 413.62C160.25 474.40 160.25 524.26 160.25 524.43C160.25 524.85 161.93 525.68 163.42 526.00C164.08 526.14 164.85 526.37 165.12 526.50C165.66 526.75 168.08 527.60 169.50 528.04C169.98 528.19 170.59 528.46 170.87 528.65C171.14 528.84 171.52 529.00 171.72 529.00C172.07 529.00 173.61 529.65 175.30 530.52C175.81 530.79 176.37 531.00 176.55 531.01C176.73 531.01 177.16 531.23 177.50 531.50C177.84 531.77 178.33 531.99 178.59 531.99C178.84 532.00 179.33 532.23 179.68 532.50C180.03 532.77 180.50 533.00 180.72 533.01C180.94 533.01 181.41 533.23 181.75 533.50C182.09 533.77 182.57 533.99 182.80 533.99C183.03 534.00 183.29 534.11 183.38 534.25C183.46 534.39 183.95 534.71 184.45 534.95C184.96 535.20 185.63 535.54 185.94 535.70C186.25 535.87 186.75 536.13 187.06 536.30C187.37 536.46 188.02 536.80 188.50 537.05C188.98 537.31 189.71 537.72 190.12 537.97C190.54 538.22 191.30 538.67 191.81 538.96C192.33 539.26 193.17 539.74 193.69 540.04C194.20 540.34 194.90 540.73 195.24 540.91C195.59 541.09 195.94 541.44 196.04 541.68C196.14 541.93 196.22 546.91 196.23 552.76C196.25 560.72 196.17 563.48 195.95 563.70C195.72 563.93 180.61 564.00 129.49 564.00C93.10 564.00 63.26 563.92 63.17 563.83ZM494.55 537.02C492.28 536.44 490.04 533.14 490.37 530.88C490.94 527.04 493.12 525.00 496.62 525.00C500.29 525.00 502.76 527.52 502.74 531.23C502.74 533.35 501.89 534.98 500.19 536.17C499.17 536.89 498.73 537.02 497.19 537.12C496.19 537.18 495.00 537.14 494.55 537.02Z"/>
</svg>
